<svg width="13" height="13" viewBox="0 0 13 13" fill="none" xmlns="http://www.w3.org/2000/svg">
<path d="M6.5 0.40625C5.29477 0.40625 4.11661 0.763642 3.1145 1.43323C2.11238 2.10282 1.33133 3.05454 0.870112 4.16802C0.40889 5.28151 0.288214 6.50676 0.523342 7.68883C0.758471 8.8709 1.33884 9.95671 2.19107 10.8089C3.0433 11.6612 4.1291 12.2415 5.31117 12.4767C6.49324 12.7118 7.71849 12.5911 8.83198 12.1299C9.94547 11.6687 10.8972 10.8876 11.5668 9.88551C12.2364 8.88339 12.5938 7.70523 12.5938 6.5C12.5907 4.88479 11.9476 3.33662 10.8055 2.19449C9.66338 1.05236 8.11521 0.409347 6.5 0.40625ZM9.78125 6.96875H6.5C6.37568 6.96875 6.25645 6.91936 6.16855 6.83146C6.08064 6.74355 6.03125 6.62432 6.03125 6.5V3.21875C6.03125 3.09443 6.08064 2.9752 6.16855 2.88729C6.25645 2.79939 6.37568 2.75 6.5 2.75C6.62432 2.75 6.74355 2.79939 6.83146 2.88729C6.91937 2.9752 6.96875 3.09443 6.96875 3.21875V6.03125H9.78125C9.90557 6.03125 10.0248 6.08064 10.1127 6.16854C10.2006 6.25645 10.25 6.37568 10.25 6.5C10.25 6.62432 10.2006 6.74355 10.1127 6.83146C10.0248 6.91936 9.90557 6.96875 9.78125 6.96875Z" fill="#7D81EA"/>
</svg>
