<svg width="13" height="13" viewBox="0 0 13 13" fill="none" xmlns="http://www.w3.org/2000/svg">
<path d="M12.0078 8.28127L9.25977 7.10939C9.11797 7.04584 8.96232 7.01949 8.80751 7.03281C8.6527 7.04614 8.50384 7.09872 8.375 7.18557L6.9043 8.16408C6.00796 7.72874 5.28224 7.00714 4.8418 6.1133L5.81445 4.62502C5.90073 4.49604 5.95342 4.34756 5.96774 4.19305C5.98207 4.03854 5.95758 3.8829 5.89648 3.74025L4.71875 0.992207C4.63657 0.806649 4.49742 0.652093 4.32147 0.550952C4.14553 0.44981 3.94194 0.407343 3.74023 0.429707C2.94898 0.533362 2.22229 0.920824 1.69527 1.52005C1.16825 2.11928 0.876759 2.88951 0.875 3.68752C0.875 8.33986 4.66016 12.125 9.3125 12.125C10.1105 12.1233 10.8807 11.8318 11.48 11.3048C12.0792 10.7777 12.4667 10.051 12.5703 9.25979C12.5927 9.05808 12.5502 8.85449 12.4491 8.67855C12.3479 8.5026 12.1934 8.36345 12.0078 8.28127Z" fill="#00930F"/>
</svg>
