<svg width="26" height="26" viewBox="0 0 26 26" fill="none" xmlns="http://www.w3.org/2000/svg">
<path d="M21.2604 16.1704V20.204C21.2604 20.6215 21.0945 21.0219 20.7994 21.3171C20.5042 21.6123 20.1038 21.7781 19.6863 21.7781H5.51951C5.10204 21.7781 4.70166 21.6123 4.40646 21.3171C4.11126 21.0219 3.94542 20.6215 3.94542 20.204V16.1704C3.37537 16.0232 2.85801 15.7191 2.45211 15.2927C2.0462 14.8662 1.76801 14.3345 1.64913 13.7579C1.53026 13.1813 1.57545 12.5828 1.77959 12.0306C1.98373 11.4784 2.33863 10.9945 2.80398 10.6338C3.26934 10.2732 3.8265 10.0503 4.41219 9.99036C4.99789 9.93046 5.58864 10.036 6.11736 10.295C6.64608 10.554 7.09158 10.9561 7.40327 11.4555C7.71496 11.955 7.88034 12.5319 7.88064 13.1206V17.0558C7.88064 17.2646 7.96356 17.4648 8.11116 17.6124C8.25876 17.76 8.45895 17.8429 8.66769 17.8429C8.87642 17.8429 9.07661 17.76 9.22421 17.6124C9.37181 17.4648 9.45473 17.2646 9.45473 17.0558V13.9077H15.7511V17.0558C15.7511 17.2646 15.834 17.4648 15.9816 17.6124C16.1292 17.76 16.3294 17.8429 16.5381 17.8429C16.7469 17.8429 16.9471 17.76 17.0947 17.6124C17.2423 17.4648 17.3252 17.2646 17.3252 17.0558V13.1206C17.3255 12.5319 17.4909 11.955 17.8025 11.4555C18.1142 10.9561 18.5597 10.554 19.0885 10.295C19.6172 10.036 20.2079 9.93046 20.7936 9.99036C21.3793 10.0503 21.9365 10.2732 22.4018 10.6338C22.8672 10.9945 23.2221 11.4784 23.4262 12.0306C23.6304 12.5828 23.6756 13.1813 23.5567 13.7579C23.4378 14.3345 23.1596 14.8662 22.7537 15.2927C22.3478 15.7191 21.8304 16.0232 21.2604 16.1704ZM9.38586 12.3336H15.8199C16.0059 11.2337 16.5751 10.2351 17.4269 9.51483C18.2786 8.79454 19.3579 8.39902 20.4733 8.39835H20.8374C20.8909 8.40388 20.9451 8.39806 20.9963 8.38126C21.0475 8.36447 21.0946 8.33709 21.1345 8.30089C21.1744 8.2647 21.2062 8.2205 21.2279 8.17119C21.2496 8.12187 21.2607 8.06854 21.2604 8.01467V7.61131C21.2604 6.56762 20.8458 5.56668 20.1078 4.82869C19.3698 4.09069 18.3689 3.67609 17.3252 3.67609H7.88064C6.83696 3.67609 5.83602 4.09069 5.09802 4.82869C4.36002 5.56668 3.94542 6.56762 3.94542 7.61131V8.0245C3.94514 8.07838 3.9562 8.13171 3.9779 8.18103C3.99959 8.23034 4.03143 8.27454 4.07134 8.31073C4.11124 8.34693 4.15833 8.37431 4.20952 8.3911C4.26071 8.40789 4.31487 8.41372 4.36846 8.40819H4.73247C5.84652 8.40846 6.92461 8.80259 7.77615 9.52091C8.6277 10.2392 9.19787 11.2355 9.38586 12.3336Z" fill="url(#paint0_linear_1_61)"/>
<defs>
<linearGradient id="paint0_linear_1_61" x1="12.6029" y1="3.67609" x2="12.6029" y2="21.7781" gradientUnits="userSpaceOnUse">
<stop stop-color="white"/>
<stop offset="1" stop-color="white" stop-opacity="0.79"/>
</linearGradient>
</defs>
</svg>
