<svg width="32" height="32" viewBox="0 0 32 32" fill="none" xmlns="http://www.w3.org/2000/svg">
<g opacity="0.3">
<path d="M27 9.00005H22.625C23.2549 8.20465 23.5589 7.19962 23.4756 6.18847C23.3923 5.17731 22.9279 4.23558 22.1764 3.55397C21.4249 2.87236 20.4424 2.5018 19.4279 2.51731C18.4135 2.53283 17.4428 2.93327 16.7125 3.63755C16.4179 3.93577 16.1769 4.28251 16 4.66255C15.8231 4.28251 15.5821 3.93577 15.2875 3.63755C14.5572 2.93327 13.5865 2.53283 12.5721 2.51731C11.5576 2.5018 10.5751 2.87236 9.82361 3.55397C9.07209 4.23558 8.60766 5.17731 8.52437 6.18847C8.44108 7.19962 8.74514 8.20465 9.375 9.00005H5C4.46957 9.00005 3.96086 9.21077 3.58579 9.58584C3.21071 9.96091 3 10.4696 3 11.0001V15.0001C3 15.5305 3.21071 16.0392 3.58579 16.4143C3.96086 16.7893 4.46957 17.0001 5 17.0001V25.0001C5 25.5305 5.21071 26.0392 5.58579 26.4143C5.96086 26.7893 6.46957 27.0001 7 27.0001H25C25.5304 27.0001 26.0391 26.7893 26.4142 26.4143C26.7893 26.0392 27 25.5305 27 25.0001V17.0001C27.5304 17.0001 28.0391 16.7893 28.4142 16.4143C28.7893 16.0392 29 15.5305 29 15.0001V11.0001C29 10.4696 28.7893 9.96091 28.4142 9.58584C28.0391 9.21077 27.5304 9.00005 27 9.00005ZM18.125 5.05005C18.3069 4.84928 18.5277 4.68756 18.774 4.57471C19.0203 4.46186 19.287 4.40023 19.5579 4.39356C19.8287 4.38689 20.0981 4.43532 20.3497 4.53592C20.6012 4.63651 20.8297 4.78717 21.0213 4.97874C21.2129 5.17032 21.3635 5.39882 21.4641 5.65039C21.5647 5.90195 21.6132 6.17133 21.6065 6.44218C21.5998 6.71303 21.5382 6.9797 21.4253 7.22601C21.3125 7.47232 21.1508 7.69314 20.95 7.87505C20.3375 8.50005 18.55 8.83755 17.0375 8.96255C17.1625 7.45005 17.5 5.66255 18.125 5.05005ZM11.05 5.05005C11.4265 4.67905 11.9339 4.47108 12.4625 4.47108C12.9911 4.47108 13.4985 4.67905 13.875 5.05005C14.5 5.66255 14.8375 7.45005 14.9625 8.96255C13.45 8.83755 11.6625 8.50005 11.05 7.87505C10.679 7.49853 10.471 6.99115 10.471 6.46255C10.471 5.93396 10.679 5.42658 11.05 5.05005ZM27 15.0001H17V24.0001C17 24.2653 16.8946 24.5196 16.7071 24.7072C16.5196 24.8947 16.2652 25.0001 16 25.0001C15.7348 25.0001 15.4804 24.8947 15.2929 24.7072C15.1054 24.5196 15 24.2653 15 24.0001V15.0001H5V11.0001H15V15.0001H17V11.0001H27V15.0001Z" fill="black"/>
</g>
</svg>
