<svg width="24" height="25" viewBox="0 0 24 25" fill="none" xmlns="http://www.w3.org/2000/svg">
<path d="M23.3498 9.96251L13.3498 0.875011C12.9811 0.53771 12.4995 0.350647 11.9998 0.350647C11.5001 0.350647 11.0185 0.53771 10.6498 0.875011L0.649779 9.96251C0.445034 10.1498 0.28151 10.3777 0.169606 10.6316C0.0577018 10.8856 -0.00013339 11.16 -0.000221572 11.4375V22.95C-0.00835218 23.4542 0.169661 23.9438 0.499778 24.325C0.687138 24.5381 0.917942 24.7085 1.17667 24.825C1.4354 24.9414 1.71606 25.0011 1.99978 25H7.99978C8.265 25 8.51935 24.8947 8.70689 24.7071C8.89442 24.5196 8.99978 24.2652 8.99978 24V18C8.99978 17.7348 9.10514 17.4804 9.29267 17.2929C9.48021 17.1054 9.73456 17 9.99978 17H13.9998C14.265 17 14.5194 17.1054 14.7069 17.2929C14.8944 17.4804 14.9998 17.7348 14.9998 18V24C14.9998 24.2652 15.1051 24.5196 15.2927 24.7071C15.4802 24.8947 15.7346 25 15.9998 25H21.9998C22.3315 25.0029 22.6585 24.9212 22.9498 24.7625C23.2668 24.5899 23.5315 24.3352 23.7162 24.0251C23.901 23.715 23.9989 23.361 23.9998 23V11.4375C23.9997 11.16 23.9419 10.8856 23.83 10.6316C23.718 10.3777 23.5545 10.1498 23.3498 9.96251Z" fill="#5077DD"/>
</svg>
