<svg width="18" height="18" viewBox="0 0 18 18" fill="none" xmlns="http://www.w3.org/2000/svg">
<path d="M9 1.6875C7.55373 1.6875 6.13993 2.11637 4.9374 2.91988C3.73486 3.72339 2.7976 4.86544 2.24413 6.20163C1.69067 7.53781 1.54586 9.00811 1.82801 10.4266C2.11017 11.8451 2.80661 13.148 3.82928 14.1707C4.85196 15.1934 6.15492 15.8898 7.57341 16.172C8.99189 16.4541 10.4622 16.3093 11.7984 15.7559C13.1346 15.2024 14.2766 14.2651 15.0801 13.0626C15.8836 11.8601 16.3125 10.4463 16.3125 9C16.3088 7.06175 15.5372 5.20394 14.1666 3.83339C12.7961 2.46283 10.9383 1.69122 9 1.6875ZM8.85938 5.0625C9.02626 5.0625 9.18939 5.11198 9.32814 5.2047C9.46689 5.29741 9.57504 5.42919 9.6389 5.58336C9.70276 5.73754 9.71947 5.90719 9.68692 6.07086C9.65436 6.23453 9.574 6.38487 9.456 6.50287C9.338 6.62087 9.18766 6.70123 9.02399 6.73379C8.86031 6.76634 8.69066 6.74963 8.53649 6.68577C8.38231 6.62191 8.25054 6.51377 8.15783 6.37501C8.06511 6.23626 8.01563 6.07313 8.01563 5.90625C8.01563 5.68247 8.10452 5.46786 8.26276 5.30963C8.42099 5.15139 8.6356 5.0625 8.85938 5.0625ZM9.5625 12.9375H9C8.85082 12.9375 8.70775 12.8782 8.60226 12.7727C8.49677 12.6673 8.4375 12.5242 8.4375 12.375V9C8.28832 9 8.14525 8.94074 8.03976 8.83525C7.93427 8.72976 7.875 8.58668 7.875 8.4375C7.875 8.28832 7.93427 8.14524 8.03976 8.03975C8.14525 7.93426 8.28832 7.875 8.4375 7.875H9C9.14919 7.875 9.29226 7.93426 9.39775 8.03975C9.50324 8.14524 9.5625 8.28832 9.5625 8.4375V11.8125C9.71169 11.8125 9.85476 11.8718 9.96025 11.9773C10.0657 12.0827 10.125 12.2258 10.125 12.375C10.125 12.5242 10.0657 12.6673 9.96025 12.7727C9.85476 12.8782 9.71169 12.9375 9.5625 12.9375Z" fill="white"/>
</svg>
