<svg width="26" height="26" viewBox="0 0 26 26" fill="none" xmlns="http://www.w3.org/2000/svg">
<path d="M24.7577 10.2381L19.2484 3.94171C19.1744 3.85812 19.0836 3.7912 18.9818 3.74541C18.88 3.69961 18.7697 3.67598 18.6581 3.67609H7.63946C7.52786 3.67598 7.41752 3.69961 7.31575 3.74541C7.21398 3.7912 7.12311 3.85812 7.04918 3.94171L1.53987 10.2381C1.41187 10.3866 1.34311 10.5771 1.34674 10.7731C1.35037 10.9691 1.42614 11.1569 1.55955 11.3006L12.5782 23.1062C12.6517 23.1836 12.7402 23.2453 12.8383 23.2874C12.9364 23.3295 13.042 23.3512 13.1488 23.3512C13.2555 23.3512 13.3612 23.3295 13.4593 23.2874C13.5573 23.2453 13.6459 23.1836 13.7194 23.1062L24.738 11.3006C24.8714 11.1569 24.9472 10.9691 24.9508 10.7731C24.9544 10.5771 24.8857 10.3866 24.7577 10.2381ZM22.4359 9.97244H18.3629L14.7425 5.25017H18.3039L22.4359 9.97244ZM7.78703 11.5465L10.7975 18.8857L3.94035 11.5465H7.78703ZM18.5105 11.5465H22.3572L15.5001 18.8857L18.5105 11.5465ZM7.99363 5.25017H11.555L7.9346 9.97244H3.86165L7.99363 5.25017Z" fill="url(#paint0_linear_1_55)"/>
<defs>
<linearGradient id="paint0_linear_1_55" x1="13.1488" y1="3.67609" x2="13.1488" y2="23.3512" gradientUnits="userSpaceOnUse">
<stop stop-color="white"/>
<stop offset="1" stop-color="white" stop-opacity="0.79"/>
</linearGradient>
</defs>
</svg>
