<svg width="13" height="13" viewBox="0 0 13 13" fill="none" xmlns="http://www.w3.org/2000/svg">
<path d="M11.8613 4.17968L1.94134 0.746088C1.77465 0.687503 1.59479 0.677218 1.4225 0.716417C1.25022 0.755616 1.09252 0.842704 0.967581 0.967642C0.842643 1.09258 0.755555 1.25028 0.716356 1.42257C0.677157 1.59485 0.687442 1.77471 0.746027 1.9414L4.17962 11.8613C4.24145 12.0467 4.36034 12.2077 4.51926 12.3214C4.67819 12.435 4.869 12.4955 5.06439 12.4941H5.08196C5.27974 12.4946 5.47232 12.4308 5.63079 12.3125C5.78927 12.1942 5.90509 12.0276 5.96087 11.8379L7.34368 7.3496L11.832 5.96093C12.0218 5.90453 12.1886 5.78872 12.3078 5.63053C12.4269 5.47233 12.4922 5.28008 12.4941 5.08203C12.4983 4.88386 12.4392 4.68952 12.3254 4.52724C12.2116 4.36497 12.049 4.24321 11.8613 4.17968Z" fill="#FF4022"/>
</svg>
