<svg width="23" height="23" viewBox="0 0 23 23" fill="none" xmlns="http://www.w3.org/2000/svg">
<path d="M11.5002 19.4063C15.8667 19.4063 19.4065 15.8665 19.4065 11.5C19.4065 7.1335 15.8667 3.59375 11.5002 3.59375C7.13374 3.59375 3.59399 7.1335 3.59399 11.5C3.59399 15.8665 7.13374 19.4063 11.5002 19.4063Z" stroke="#4956B3" stroke-width="1.07812" stroke-linecap="round" stroke-linejoin="round"/>
<path d="M11.5 1.79688V5.39062" stroke="#4956B3" stroke-width="1.07812" stroke-linecap="round" stroke-linejoin="round"/>
<path d="M1.79712 11.5H5.39087" stroke="#4956B3" stroke-width="1.07812" stroke-linecap="round" stroke-linejoin="round"/>
<path d="M11.5 21.2031V17.6094" stroke="#4956B3" stroke-width="1.07812" stroke-linecap="round" stroke-linejoin="round"/>
<path d="M21.2031 11.5H17.6094" stroke="#4956B3" stroke-width="1.07812" stroke-linecap="round" stroke-linejoin="round"/>
<path d="M11.5002 14.375C13.0881 14.375 14.3752 13.0878 14.3752 11.5C14.3752 9.91218 13.0881 8.625 11.5002 8.625C9.91243 8.625 8.62524 9.91218 8.62524 11.5C8.62524 13.0878 9.91243 14.375 11.5002 14.375Z" stroke="#4956B3" stroke-width="1.07812" stroke-linecap="round" stroke-linejoin="round"/>
</svg>
