<svg width="32" height="32" viewBox="0 0 32 32" fill="none" xmlns="http://www.w3.org/2000/svg">
<path d="M27.6 21.9875C26.8625 20.7125 25.975 18.2875 25.975 14V13.1125C25.975 7.575 21.5375 3.0375 16.075 3H16C14.6884 3.00164 13.39 3.2616 12.1789 3.76503C10.9678 4.26847 9.86768 5.00552 8.94141 5.93411C8.01515 6.86269 7.28085 7.96463 6.78045 9.177C6.28005 10.3894 6.02334 11.6884 6.02498 13V14C6.02498 18.2875 5.13748 20.7125 4.39998 21.9875C4.22162 22.2913 4.12669 22.6369 4.12478 22.9892C4.12288 23.3415 4.21408 23.6881 4.38916 23.9938C4.56423 24.2996 4.81696 24.5536 5.12177 24.7303C5.42659 24.907 5.77266 25 6.12498 25H11C11 26.3261 11.5268 27.5979 12.4644 28.5355C13.4021 29.4732 14.6739 30 16 30C17.3261 30 18.5978 29.4732 19.5355 28.5355C20.4732 27.5979 21 26.3261 21 25H25.875C26.2272 25.0022 26.5737 24.9108 26.8791 24.7351C27.1844 24.5594 27.4375 24.3057 27.6125 24C27.786 23.6926 27.8761 23.3451 27.8739 22.9921C27.8717 22.6391 27.7773 22.2928 27.6 21.9875ZM16 28C15.2053 27.9967 14.4442 27.6796 13.8823 27.1177C13.3204 26.5558 13.0033 25.7946 13 25H19C18.9967 25.7946 18.6796 26.5558 18.1177 27.1177C17.5558 27.6796 16.7946 27.9967 16 28Z" fill="url(#paint0_linear_1_371)"/>
<defs>
<linearGradient id="paint0_linear_1_371" x1="15.9994" y1="3" x2="15.9994" y2="30" gradientUnits="userSpaceOnUse">
<stop stop-color="#3F48BF"/>
<stop offset="1" stop-color="#4172E0"/>
</linearGradient>
</defs>
</svg>
