<svg width="26" height="26" viewBox="0 0 26 26" fill="none" xmlns="http://www.w3.org/2000/svg">
<path d="M21.2996 3.88905V22.7781C21.2996 22.9868 21.2166 23.187 21.069 23.3346C20.9214 23.4822 20.7213 23.5651 20.5125 23.5651C20.3038 23.5651 20.1036 23.4822 19.956 23.3346C19.8084 23.187 19.7255 22.9868 19.7255 22.7781V17.2688H15.0032C14.8918 17.2677 14.7819 17.2435 14.6803 17.1978C14.5787 17.1521 14.4877 17.0858 14.4129 17.0032C14.3397 16.9207 14.2844 16.8238 14.2505 16.7188C14.2167 16.6138 14.205 16.503 14.2162 16.3932C14.46 14.4228 14.848 12.4729 15.3771 10.5592C16.5576 6.38791 18.2006 3.88905 20.2469 3.15119C20.3654 3.10625 20.4931 3.09098 20.6189 3.10672C20.7447 3.12246 20.8647 3.16872 20.9685 3.24148C21.0723 3.31424 21.1568 3.41129 21.2145 3.52416C21.2722 3.63703 21.3014 3.7623 21.2996 3.88905ZM13.0258 8.48342L12.2387 3.76115C12.2219 3.65909 12.1852 3.56133 12.1306 3.47346C12.076 3.3856 12.0047 3.30934 11.9207 3.24904C11.8366 3.18875 11.7415 3.1456 11.6408 3.12206C11.5401 3.09852 11.4357 3.09505 11.3336 3.11184C11.1275 3.14576 10.9433 3.26017 10.8215 3.42991C10.6997 3.59965 10.6504 3.81081 10.6843 4.01694L11.3238 7.82427H9.49391V3.88905C9.49391 3.68031 9.41099 3.48012 9.26339 3.33252C9.11579 3.18492 8.9156 3.102 8.70687 3.102C8.49813 3.102 8.29794 3.18492 8.15034 3.33252C8.00274 3.48012 7.91982 3.68031 7.91982 3.88905V7.82427H6.08994L6.72942 4.01694C6.74621 3.91488 6.74274 3.8105 6.7192 3.70978C6.69566 3.60906 6.65251 3.51396 6.59221 3.42991C6.53192 3.34587 6.45566 3.27452 6.36779 3.21994C6.27993 3.16537 6.18217 3.12864 6.08011 3.11184C5.97804 3.09505 5.87367 3.09852 5.77295 3.12206C5.67222 3.1456 5.57713 3.18875 5.49308 3.24904C5.40903 3.30934 5.33769 3.3856 5.28311 3.47346C5.22854 3.56133 5.1918 3.65909 5.17501 3.76115L4.38796 8.48342C4.379 8.52542 4.37569 8.56843 4.37812 8.61131C4.37926 9.62289 4.73384 10.6023 5.38056 11.3801C6.02727 12.158 6.92545 12.6854 7.91982 12.8712V22.7781C7.91982 22.9868 8.00274 23.187 8.15034 23.3346C8.29794 23.4822 8.49813 23.5651 8.70687 23.5651C8.9156 23.5651 9.11579 23.4822 9.26339 23.3346C9.41099 23.187 9.49391 22.9868 9.49391 22.7781V12.8712C10.4883 12.6854 11.3865 12.158 12.0332 11.3801C12.6799 10.6023 13.0345 9.62289 13.0356 8.61131C13.0372 8.5717 13.0339 8.53205 13.0258 8.49325V8.48342Z" fill="url(#paint0_linear_1_73)"/>
<defs>
<linearGradient id="paint0_linear_1_73" x1="12.8385" y1="3.10071" x2="12.8385" y2="23.5651" gradientUnits="userSpaceOnUse">
<stop stop-color="white"/>
<stop offset="1" stop-color="white" stop-opacity="0.79"/>
</linearGradient>
</defs>
</svg>
