<svg width="16" height="15" viewBox="0 0 16 15" fill="none" xmlns="http://www.w3.org/2000/svg">
<path fill-rule="evenodd" clip-rule="evenodd" d="M8.65199 0.788234L10.5003 4.72049C10.5189 4.76252 10.5489 4.79889 10.587 4.82576C10.6251 4.85263 10.6699 4.86901 10.7168 4.87317L15.134 5.36736C15.2795 5.38289 15.4172 5.43892 15.5307 5.52871C15.6442 5.6185 15.7287 5.73824 15.7739 5.87355C15.8192 6.00886 15.8233 6.15399 15.7858 6.29152C15.7483 6.42905 15.6707 6.55313 15.5625 6.64887L12.2877 9.57292C12.2521 9.60311 12.2256 9.6421 12.2109 9.68577C12.1963 9.72944 12.1941 9.77614 12.2045 9.82094L13.0861 14.0586C13.116 14.1978 13.1039 14.3424 13.0512 14.4751C12.9985 14.6078 12.9075 14.7228 12.7892 14.8064C12.6709 14.8899 12.5302 14.9385 12.3841 14.9461C12.2381 14.9537 12.0929 14.9202 11.966 14.8495L8.09369 12.7246C8.05293 12.7016 8.00664 12.6895 7.95952 12.6895C7.9124 12.6895 7.86611 12.7016 7.82535 12.7246L3.95216 14.8495C3.82525 14.92 3.68011 14.9534 3.53417 14.9456C3.38823 14.9379 3.24768 14.8893 3.12942 14.8058C3.01116 14.7223 2.92021 14.6074 2.86749 14.4748C2.81477 14.3423 2.80254 14.1977 2.83224 14.0586L3.71383 9.82094C3.72427 9.77614 3.72205 9.72944 3.7074 9.68577C3.69274 9.6421 3.66621 9.60311 3.63061 9.57292L0.356536 6.64853C0.248145 6.55286 0.170485 6.42877 0.132897 6.2912C0.095308 6.15363 0.0993905 6.00843 0.144653 5.87306C0.189916 5.73769 0.274432 5.61792 0.388037 5.52814C0.501643 5.43837 0.6395 5.38242 0.78503 5.36702L5.20292 4.87284C5.24979 4.86867 5.29465 4.85229 5.33275 4.82542C5.37086 4.79855 5.4008 4.76218 5.41943 4.72015L7.26706 0.788234C7.32701 0.658439 7.42427 0.548261 7.54712 0.470962C7.66998 0.393664 7.81319 0.352539 7.95952 0.352539C8.10585 0.352539 8.24906 0.393664 8.37192 0.470962C8.49477 0.548261 8.59203 0.658439 8.65199 0.788234Z" fill="#FFDB5C"/>
</svg>
