<svg width="26" height="26" viewBox="0 0 26 26" fill="none" xmlns="http://www.w3.org/2000/svg">
<path d="M9.69563 21.7781C9.69563 22.0894 9.60331 22.3938 9.43035 22.6526C9.25738 22.9115 9.01154 23.1132 8.72392 23.2324C8.43629 23.3515 8.11979 23.3827 7.81445 23.3219C7.50911 23.2612 7.22863 23.1113 7.00849 22.8911C6.78835 22.671 6.63843 22.3905 6.5777 22.0852C6.51696 21.7798 6.54813 21.4633 6.66727 21.1757C6.78641 20.8881 6.98817 20.6423 7.24702 20.4693C7.50588 20.2963 7.81021 20.204 8.12154 20.204C8.53901 20.204 8.93939 20.3698 9.23459 20.665C9.52979 20.9602 9.69563 21.3606 9.69563 21.7781ZM18.3531 20.204C18.0418 20.204 17.7375 20.2963 17.4786 20.4693C17.2197 20.6423 17.018 20.8881 16.8988 21.1757C16.7797 21.4633 16.7485 21.7798 16.8093 22.0852C16.87 22.3905 17.0199 22.671 17.2401 22.8911C17.4602 23.1113 17.7407 23.2612 18.046 23.3219C18.3514 23.3827 18.6679 23.3515 18.9555 23.2324C19.2431 23.1132 19.489 22.9115 19.6619 22.6526C19.8349 22.3938 19.9272 22.0894 19.9272 21.7781C19.9272 21.3606 19.7614 20.9602 19.4662 20.665C19.171 20.3698 18.7706 20.204 18.3531 20.204ZM22.6917 7.13908C22.6179 7.04189 22.5227 6.96296 22.4135 6.90837C22.3044 6.85379 22.1841 6.82501 22.0621 6.82426H5.00288L4.206 4.03025C4.11044 3.702 3.91125 3.41348 3.63818 3.20779C3.3651 3.0021 3.03281 2.89028 2.69094 2.88904H1.03814C0.829406 2.88904 0.629218 2.97196 0.481619 3.11956C0.334019 3.26716 0.251099 3.46735 0.251099 3.67608C0.251099 3.88482 0.334019 4.08501 0.481619 4.23261C0.629218 4.38021 0.829406 4.46313 1.03814 4.46313H2.69094L3.65506 7.8179V7.83758L6.25231 16.9181C6.39493 17.4109 6.69353 17.8441 7.1033 18.1528C7.51307 18.4614 8.01189 18.6289 8.5249 18.6299H17.9498C18.4628 18.6289 18.9616 18.4614 19.3714 18.1528C19.7811 17.8441 20.0797 17.4109 20.2223 16.9181L22.8196 7.82774C22.8529 7.71087 22.8587 7.58787 22.8365 7.4684C22.8143 7.34892 22.7647 7.2362 22.6917 7.13908Z" fill="url(#paint0_linear_1_67)"/>
<defs>
<linearGradient id="paint0_linear_1_67" x1="11.5504" y1="2.88904" x2="11.5504" y2="23.3522" gradientUnits="userSpaceOnUse">
<stop stop-color="white"/>
<stop offset="1" stop-color="white" stop-opacity="0.79"/>
</linearGradient>
</defs>
</svg>
