<svg width="26" height="26" viewBox="0 0 26 26" fill="none" xmlns="http://www.w3.org/2000/svg">
<path d="M24.4576 6.55864L19.5976 3.7843C19.4782 3.71426 19.3425 3.67693 19.2041 3.67609H16.0559C15.8472 3.67609 15.647 3.75901 15.4994 3.90661C15.3518 4.05421 15.2689 4.25439 15.2689 4.46313C15.2689 5.08934 15.0201 5.6899 14.5773 6.1327C14.1345 6.5755 13.5339 6.82426 12.9077 6.82426C12.2815 6.82426 11.6809 6.5755 11.2382 6.1327C10.7954 5.6899 10.5466 5.08934 10.5466 4.46313C10.5466 4.25439 10.4637 4.05421 10.3161 3.90661C10.1685 3.75901 9.96828 3.67609 9.75955 3.67609H6.61137C6.47296 3.67693 6.33723 3.71426 6.21785 3.7843L1.35785 6.55864C1.00743 6.75602 0.746498 7.0808 0.629249 7.46552C0.512001 7.85025 0.547443 8.26535 0.728217 8.62463L2.53842 12.2549C2.66968 12.5154 2.87073 12.7342 3.11915 12.8871C3.36757 13.04 3.65357 13.1208 3.94526 13.1206H5.82433V20.9911C5.82433 21.4085 5.99017 21.8089 6.28537 22.1041C6.58057 22.3993 6.98094 22.5651 7.39842 22.5651H18.417C18.8345 22.5651 19.2349 22.3993 19.5301 22.1041C19.8253 21.8089 19.9911 21.4085 19.9911 20.9911V13.1206H21.8702C22.1619 13.1208 22.4479 13.04 22.6963 12.8871C22.9447 12.7342 23.1458 12.5154 23.277 12.2549L25.0872 8.62463C25.268 8.26535 25.3034 7.85025 25.1862 7.46552C25.0689 7.0808 24.808 6.75602 24.4576 6.55864ZM3.94526 11.5465L2.13506 7.92612L5.82433 5.82078V11.5465H3.94526ZM21.8702 11.5465H19.9911V5.82078L23.6804 7.92612L21.8702 11.5465Z" fill="url(#paint0_linear_1_50)"/>
<defs>
<linearGradient id="paint0_linear_1_50" x1="12.9077" y1="3.67609" x2="12.9077" y2="22.5651" gradientUnits="userSpaceOnUse">
<stop stop-color="white"/>
<stop offset="1" stop-color="white" stop-opacity="0.79"/>
</linearGradient>
</defs>
</svg>
